<svg t="1609124250145" class="icon" viewBox="0 0 1024 1024" version="1.1" xmlns="http://www.w3.org/2000/svg" p-id="1740" width="200" height="200"><path d="M1008.814966 512.493822c0-132.796826-51.621452-257.568433-145.363751-351.342356C769.676076 67.324026 644.848519 15.678248 511.942225 15.678248c-132.881968 0-257.682766 51.645778-351.42993 145.473219C66.796755 254.925389 15.178952 379.696996 15.178952 512.493822c0 67.039409 13.117913 132.079203 38.969386 193.303429 24.996406 59.175959 60.782706 112.289824 106.365174 157.901484 93.803114 93.884607 218.599047 145.55836 351.42993 145.55836 63.323579 0 124.799582-11.816461 182.008766-34.29267-5.730041-12.315148-11.183979-24.768956-14.533699-37.944035-51.869579 20.534977-108.356275 31.937892-167.447092 31.937892-251.676623 0-456.410942-204.758645-456.410942-456.435268 0-251.699733 204.763511-456.491219 456.410942-456.491219 251.700949 0 456.516761 204.791486 456.516761 456.491219 0 39.106829-4.984442 77.055729-14.311114 113.312742-2.295179-0.32962-4.623198-0.495039-7.003518-0.495039-27.120085 0-49.155989 22.003065-49.155989 49.155989 0 27.14806 22.035905 49.152341 49.155989 49.152341 27.152925 0 49.155989-22.004281 49.155989-49.152341 0-9.078545-2.460597-17.551367-6.751742-24.858963C1002.339327 605.27037 1008.814966 559.354633 1008.814966 512.493822L1008.814966 512.493822zM1008.814966 512.493822" p-id="1741"></path><path d="M703.055078 191.848721c-69.800435 0-126.401463 56.601029-126.401463 126.406329 0 69.799218 56.601029 126.401463 126.401463 126.401463 69.8053 0 126.406329-56.602245 126.406329-126.401463C829.432216 248.44975 772.831187 191.848721 703.055078 191.848721M703.027103 405.657936c-48.268083 0-87.374911-39.106829-87.374911-87.379776 0-48.238891 39.106829-87.379776 87.374911-87.379776 48.243756 0 87.350585 39.11291 87.350585 87.379776C790.405663 366.551108 751.298835 405.657936 703.027103 405.657936M692.512095 339.703477c-6.589973 0-11.958769-5.370013-11.958769-11.95512l0-84.058031c0-6.589973 5.340821-11.958769 11.958769-11.958769 6.614299 0 11.953904 5.368796 11.953904 11.958769l0 72.099262 51.094789 0c6.585107 0 11.958769 5.368796 11.958769 11.958769 0 6.585107-5.373662 11.95512-11.958769 11.95512L692.512095 339.703477 692.512095 339.703477zM692.512095 339.703477" p-id="1742"></path><path d="M688.583411 789.798116 336.51735 789.798116c-57.598404 0-104.426374-46.855946-104.426374-104.426374L232.090976 333.311763c0-57.59962 46.855946-104.432456 104.426374-104.432456l173.956788 0 0 43.179038-173.956788 0c-33.766007 0-61.252202 27.486194-61.252202 61.253418l0 352.059979c0 33.76844 27.486194 61.252202 61.252202 61.252202l352.066061 0c33.767224 0 61.247336-27.484978 61.247336-61.252202L749.830747 510.365278l43.179038 0 0 175.006464C793.009785 742.912979 746.148974 789.798116 688.583411 789.798116L688.583411 789.798116zM688.583411 789.798116" p-id="1743"></path><path d="M503.831864 453.43098l-41.406873-45.891411c-5.758016-6.390498-9.768193-11.179114-12.068237-14.363416-4.594006-4.456563-10.657316-8.138336-18.130331-10.989369-7.469365-2.879008-13.807562-1.106843-18.985397 5.259328-4.595223 7.003518-5.754367 13.869593-3.459188 20.564169 2.323154 6.699441 4.898084 11.958769 7.777092 15.777985l12.952495 13.394016c6.338196 7.639649 13.260222 15.916645 20.734452 24.858963 8.632159 10.209714 18.125465 21.06164 28.478704 32.516856l-0.859932 20.06913L420.186162 514.627232c-5.17297 0-9.63075 2.213686-13.364824 6.699441-3.73894 4.456563-5.620573 9.24153-5.620573 14.334224s1.714998 9.578448 5.179052 13.400097c3.459188 3.843543 8.053195 5.751934 13.806345 5.751934l58.678488 0 0 33.464362L420.186162 588.27729c-5.17297 0-9.63075 1.770949-13.364824 5.258112-3.73894 3.517571-5.620573 8.110361-5.620573 13.868377-0.578964 5.11702 1.026566 9.408165 4.732666 12.895328 3.766915 3.516355 8.499581 5.259328 14.252731 5.259328l58.678488 0 0 19.130138c0.555854 8.907045 3.153894 15.135773 7.777092 18.653344 4.595223 3.515139 10.353239 5.258112 17.242424 5.258112 6.922025 0.636131 12.514623-1.74419 16.828878-7.198128 4.31912-5.425963 6.475639-10.988153 6.475639-16.713328l0-19.100947 60.397135 0c5.753151 0 10.515008-1.440112 14.253948-4.317904 3.734075-2.879008 5.31163-7.497341 4.732666-13.864728 0-13.36969-8.053195-20.097105-24.164449-20.097105l-55.218083 0 0.859932-32.516856 56.102341-0.968183c8.053195 0.634914 13.81121-1.108059 17.270399-5.260545s5.14986-9.078545 5.14986-14.837777c0-5.087829-1.857307-9.711026-5.620573-13.862296-3.734075-4.152485-9.63075-6.228728-17.683944-6.228728l-56.102341 0 0-18.154657c9.768193-10.215795 18.710511-20.098322 26.734514-29.671905 6.918377-7.639649 13.81121-15.445932 20.701612-23.413985 6.922025-7.971702 12.096212-13.536324 15.527425-16.747385 13.232246-12.733559 16.111254-23.912673 8.63824-33.463146-4.015042-5.753151-9.189229-8.604183-15.527425-8.604183s-12.068237 2.54209-17.242424 7.634784c-2.879008 2.546955-7.778308 7.170153-14.672359 13.869593-6.889185 6.698224-13.783235 13.531459-20.701612 20.562952C522.542375 433.974871 513.629248 443.244376 503.831864 453.43098" p-id="1744"></path></svg>
