<svg t="1609124167856" class="icon" viewBox="0 0 1024 1024" version="1.1" xmlns="http://www.w3.org/2000/svg" p-id="1580" width="200" height="200"><path d="M512 1010.862626C305.964228 1010.862626 138.350502 843.250116 138.350502 637.213128L138.350502 450.385338l747.298996 0L885.649498 637.213128C885.649498 843.250116 718.007797 1010.862626 512 1010.862626L512 1010.862626zM200.624405 512.665322 200.624405 637.213128c0 171.694449 139.686011 311.375595 311.375595 311.375595 171.694449 0 311.375595-139.681146 311.375595-311.375595L823.375595 512.665322 200.624405 512.665322 200.624405 512.665322zM200.624405 512.665322" p-id="1581"></path><path d="M512 855.174828c-51.251693 0-92.976023-41.47377-93.413895-92.63424l0-63.053558c0-51.498604 41.915291-93.413895 93.413895-93.413895 51.50347 0 93.413895 41.915291 93.413895 93.413895l0 63.053558C604.977239 813.702275 563.223718 855.174828 512 855.174828L512 855.174828zM512 668.35312c-17.156066 0-31.133911 13.977845-31.133911 31.135127l0 62.273903c0 17.156066 13.977845 31.139992 31.133911 31.139992 17.156066 0 31.139992-13.98271 31.139992-31.139992l0-62.273903C543.139992 682.330965 529.157282 668.35312 512 668.35312L512 668.35312zM512 668.35312" p-id="1582"></path><path d="M761.101693 388.111435l-62.273903 0L698.82779 253.785706c0-97.618682-83.792876-177.049866-186.82779-177.049866-103.000858 0-186.821708 79.431185-186.821708 177.049866l0 134.325729L262.898307 388.111435 262.898307 253.785706c0-131.995277 111.725456-239.323769 249.101693-239.323769C649.381102 14.461937 761.101693 121.791645 761.101693 253.785706L761.101693 388.111435 761.101693 388.111435zM761.101693 388.111435" p-id="1583"></path></svg>
