<svg t="1609124062275" class="icon" viewBox="0 0 1024 1024" version="1.1" xmlns="http://www.w3.org/2000/svg" p-id="1408" width="200" height="200"><path d="M512 0C229.23776 0 0 229.23776 0 512s229.23776 512 512 512 512-229.23776 512-512S794.76224 0 512 0z m0 994.74432c-266.17344 0-482.74432-216.57088-482.74432-482.74432S245.82656 29.25568 512 29.25568 994.74432 245.82656 994.74432 512 778.17344 994.74432 512 994.74432z" p-id="1409"></path><path d="M585.14432 453.48352h-14.62784v14.63296h-14.63296v14.62784h-14.62784v14.62784H512v-14.62784h-14.62784v-14.62784h-14.62784v-14.63296h-14.62784v-14.62784h-29.2608v29.2608h14.62784v14.62784h14.63296v14.62784h14.62784V512h-43.88864v29.25568H512v43.88864H438.85568V614.4H512v87.77216h29.25568V614.4H614.4v-29.25568h-73.14432v-43.88864H614.4V512h-43.88352v-14.62784h14.62784v-14.62784h14.62784v-14.62784H614.4v-29.2608h-29.25568z" p-id="1410"></path><path d="M658.9184 312.58112c17.53088-13.17888 28.6208-29.64992 28.6208-49.26976 0-40.3968-32.74752-73.14432-73.14432-73.14432-35.14368 0-83.9168 43.88864-95.08864 43.88864-11.17184 0-59.94496-43.88864-95.08352-43.88864-40.3968 0-73.14432 32.74752-73.14432 73.14432 0 19.65056 10.76224 36.28544 27.97056 49.62304-86.54848 46.464-144.9984 134.54336-144.9984 235.63264 0 149.4784 127.69792 270.62784 285.25568 270.62784s285.25568-121.14944 285.25568-270.62784c0.01024-101.34016-58.73152-189.60896-145.64352-235.98592zM424.22784 219.42784c13.93152 0 40.6272 17.09056 54.9888 26.29632 17.152 10.97216 27.53024 17.5872 40.09472 17.5872 12.5696 0 22.94272-6.61504 40.09472-17.5872 14.3616-9.21088 41.05728-26.29632 54.9888-26.29632 24.20224 0 43.88352 19.68128 43.88352 43.88352 0 12.34432-12.06272 24.59136-31.20128 34.67264a297.7792 297.7792 0 0 0-107.77088-20.03968 297.79968 297.79968 0 0 0-108.87168 20.4544c-18.51904-10.08128-30.10048-22.43584-30.10048-35.08224 0.01024-24.20736 19.69152-43.88864 43.89376-43.88864z m95.08864 570.51648c-141.16352 0-256-108.28288-256-241.37216S378.14784 307.2 519.31648 307.2c141.16352 0 256 108.28288 256 241.37216 0 133.08416-114.83648 241.37216-256 241.37216z" p-id="1411"></path></svg>
